<svg width="142" height="142" viewBox="0 0 142 142" fill="none" xmlns="http://www.w3.org/2000/svg">
<path fill-rule="evenodd" clip-rule="evenodd" d="M71 1L85.0275 50.0784C82.1763 50.5431 80 53.0174 80 56C80 59.3137 82.6863 62 86 62C88.9826 62 91.4569 59.8237 91.9216 56.9724L141 71L91.9216 85.0275C91.4569 82.1763 88.9826 80 86 80C82.6863 80 80 82.6863 80 86C80 88.9826 82.1763 91.4569 85.0275 91.9216L71 141L56.9724 91.9216C59.8237 91.4569 62 88.9826 62 86C62 82.6863 59.3137 80 56 80C53.0174 80 50.5431 82.1763 50.0784 85.0275L1 71L50.0784 56.9724C50.5431 59.8237 53.0174 62 56 62C59.3137 62 62 59.3137 62 56C62 53.0174 59.8237 50.5431 56.9724 50.0784L71 1ZM71 79C75.4183 79 79 75.4183 79 71C79 66.5817 75.4183 63 71 63C66.5817 63 63 66.5817 63 71C63 75.4183 66.5817 79 71 79Z" fill="url(#paint0_linear_29_51)"/>
<path d="M85.0275 50.0784L85.0678 50.3251L85.3452 50.2799L85.2679 50.0097L85.0275 50.0784ZM71 1L71.2404 0.931296L71 0.0902952L70.7596 0.931296L71 1ZM91.9216 56.9724L91.9903 56.7321L91.7201 56.6548L91.6749 56.9322L91.9216 56.9724ZM141 71L141.069 71.2404L141.91 71L141.069 70.7596L141 71ZM91.9216 85.0275L91.6749 85.0678L91.7201 85.3452L91.9903 85.2679L91.9216 85.0275ZM85.0275 91.9216L85.2679 91.9903L85.3452 91.7201L85.0678 91.6749L85.0275 91.9216ZM71 141L70.7596 141.069L71 141.91L71.2404 141.069L71 141ZM56.9724 91.9216L56.9322 91.6749L56.6548 91.7201L56.7321 91.9903L56.9724 91.9216ZM50.0784 85.0275L50.0097 85.2679L50.2799 85.3452L50.3251 85.0678L50.0784 85.0275ZM1 71L0.931296 70.7596L0.0902952 71L0.931296 71.2404L1 71ZM50.0784 56.9724L50.3251 56.9322L50.2799 56.6548L50.0097 56.7321L50.0784 56.9724ZM56.9724 50.0784L56.7321 50.0097L56.6548 50.2799L56.9322 50.3251L56.9724 50.0784ZM85.2679 50.0097L71.2404 0.931296L70.7596 1.0687L84.7872 50.1471L85.2679 50.0097ZM80.25 56C80.25 53.1419 82.3355 50.7704 85.0678 50.3251L84.9873 49.8317C82.0171 50.3157 79.75 52.8929 79.75 56H80.25ZM86 61.75C82.8244 61.75 80.25 59.1756 80.25 56H79.75C79.75 59.4518 82.5482 62.25 86 62.25V61.75ZM91.6749 56.9322C91.2296 59.6645 88.8581 61.75 86 61.75V62.25C89.1071 62.25 91.6843 59.9829 92.1683 57.0127L91.6749 56.9322ZM141.069 70.7596L91.9903 56.7321L91.8529 57.2128L140.931 71.2404L141.069 70.7596ZM91.9903 85.2679L141.069 71.2404L140.931 70.7596L91.8529 84.7872L91.9903 85.2679ZM86 80.25C88.8581 80.25 91.2296 82.3355 91.6749 85.0678L92.1683 84.9873C91.6843 82.0171 89.1071 79.75 86 79.75V80.25ZM80.25 86C80.25 82.8244 82.8244 80.25 86 80.25V79.75C82.5482 79.75 79.75 82.5482 79.75 86H80.25ZM85.0678 91.6749C82.3355 91.2296 80.25 88.8581 80.25 86H79.75C79.75 89.1071 82.0171 91.6843 84.9873 92.1683L85.0678 91.6749ZM71.2404 141.069L85.2679 91.9903L84.7872 91.8529L70.7596 140.931L71.2404 141.069ZM56.7321 91.9903L70.7596 141.069L71.2404 140.931L57.2128 91.8529L56.7321 91.9903ZM61.75 86C61.75 88.8581 59.6645 91.2296 56.9322 91.6749L57.0127 92.1683C59.9829 91.6843 62.25 89.1071 62.25 86H61.75ZM56 80.25C59.1756 80.25 61.75 82.8244 61.75 86H62.25C62.25 82.5482 59.4518 79.75 56 79.75V80.25ZM50.3251 85.0678C50.7704 82.3355 53.1419 80.25 56 80.25V79.75C52.8929 79.75 50.3157 82.0171 49.8317 84.9873L50.3251 85.0678ZM0.931296 71.2404L50.0097 85.2679L50.1471 84.7872L1.0687 70.7596L0.931296 71.2404ZM50.0097 56.7321L0.931296 70.7596L1.0687 71.2404L50.1471 57.2128L50.0097 56.7321ZM56 61.75C53.1419 61.75 50.7704 59.6645 50.3251 56.9322L49.8317 57.0127C50.3157 59.9829 52.8929 62.25 56 62.25V61.75ZM61.75 56C61.75 59.1756 59.1756 61.75 56 61.75V62.25C59.4518 62.25 62.25 59.4518 62.25 56H61.75ZM56.9322 50.3251C59.6645 50.7704 61.75 53.1419 61.75 56H62.25C62.25 52.8929 59.9829 50.3157 57.0127 49.8317L56.9322 50.3251ZM70.7596 0.931296L56.7321 50.0097L57.2128 50.1471L71.2404 1.0687L70.7596 0.931296ZM78.75 71C78.75 75.2802 75.2802 78.75 71 78.75V79.25C75.5564 79.25 79.25 75.5564 79.25 71H78.75ZM71 63.25C75.2802 63.25 78.75 66.7198 78.75 71H79.25C79.25 66.4436 75.5564 62.75 71 62.75V63.25ZM63.25 71C63.25 66.7198 66.7198 63.25 71 63.25V62.75C66.4436 62.75 62.75 66.4436 62.75 71H63.25ZM71 78.75C66.7198 78.75 63.25 75.2802 63.25 71H62.75C62.75 75.5564 66.4436 79.25 71 79.25V78.75Z" fill="url(#paint1_linear_29_51)"/>
<path opacity="0.3" fill-rule="evenodd" clip-rule="evenodd" d="M50.0896 84.9613C50.2505 84.0391 50.622 83.1893 51.1527 82.4632L48.5 80L16.5 71H1L50.0896 84.9613Z" fill="#666666"/>
<path opacity="0.3" fill-rule="evenodd" clip-rule="evenodd" d="M59.6095 90.7933C58.8325 91.3793 57.9086 91.7807 56.9028 91.9325L71 141.5V126L62 93L59.6095 90.7933Z" fill="black"/>
<path opacity="0.3" fill-rule="evenodd" clip-rule="evenodd" d="M141.5 71H126L94 80L91.0422 82.7465C91.4931 83.4439 91.8033 84.2409 91.9325 85.0971L141.5 71Z" fill="black"/>
<path opacity="0.3" fill-rule="evenodd" clip-rule="evenodd" d="M85.0972 91.9325C84.0914 91.7807 83.1675 91.3793 82.3906 90.7933L80 93L71 126V141.5L85.0972 91.9325Z" fill="#EAEAEA"/>
<path opacity="0.3" fill-rule="evenodd" clip-rule="evenodd" d="M91.9325 56.9028C91.8033 57.7591 91.4931 58.556 91.0422 59.2535L94 62L126 71H141.5L91.9325 56.9028Z" fill="#EAEAEA"/>
<path opacity="0.3" fill-rule="evenodd" clip-rule="evenodd" d="M71 0.499969V16L79.5 46L83.1642 50.7111C83.756 50.3931 84.4074 50.1716 85.0972 50.0675L71 0.499969Z" fill="black"/>
<path opacity="0.3" fill-rule="evenodd" clip-rule="evenodd" d="M71 0.5V16L62.5 46L58.8358 50.7111C58.244 50.3931 57.5927 50.1716 56.9028 50.0675L71 0.5Z" fill="#666666"/>
<path opacity="0.3" fill-rule="evenodd" clip-rule="evenodd" d="M50.0675 56.9028L0.5 71H16L48 62L50.9578 59.2534C50.5069 58.556 50.1967 57.7591 50.0675 56.9028Z" fill="black"/>
<defs>
<linearGradient id="paint0_linear_29_51" x1="27.25" y1="27.25" x2="114.75" y2="114.75" gradientUnits="userSpaceOnUse">
<stop stop-color="white"/>
<stop offset="1" stop-color="#666666"/>
</linearGradient>
<linearGradient id="paint1_linear_29_51" x1="27.25" y1="118.031" x2="114.75" y2="27.25" gradientUnits="userSpaceOnUse">
<stop stop-color="#BBBBBB"/>
<stop offset="1" stop-color="#DDDDDD"/>
</linearGradient>
</defs>
</svg>
