<svg width="142" height="142" viewBox="0 0 142 142" fill="none" xmlns="http://www.w3.org/2000/svg">
<path fill-rule="evenodd" clip-rule="evenodd" d="M71.0001 0.999969L86.5565 55.4436L141 71L86.5566 86.5563L71.0002 141L55.4438 86.5563L1 71L55.4438 55.4436L71.0001 0.999969ZM71.0001 81C76.523 81 81.0001 76.5228 81.0001 71C81.0001 65.4771 76.523 61 71.0001 61C65.4773 61 61.0001 65.4771 61.0001 71C61.0001 76.5228 65.4773 81 71.0001 81Z" fill="url(#paint0_linear_24_104)"/>
<path d="M86.5565 55.4436L86.3161 55.5123L86.3543 55.6458L86.4878 55.684L86.5565 55.4436ZM71.0001 0.999969L71.2405 0.931285L71.0001 0.09001L70.7597 0.931285L71.0001 0.999969ZM141 71L141.069 71.2404L141.91 71L141.069 70.7596L141 71ZM86.5566 86.5563L86.4879 86.3159L86.3543 86.3541L86.3162 86.4876L86.5566 86.5563ZM71.0002 141L70.7599 141.069L71.0002 141.91L71.2406 141.069L71.0002 141ZM55.4438 86.5563L55.6842 86.4876L55.646 86.3541L55.5125 86.3159L55.4438 86.5563ZM1 71L0.931316 70.7596L0.090039 71L0.931316 71.2403L1 71ZM55.4438 55.4436L55.5125 55.684L55.6461 55.6458L55.6842 55.5123L55.4438 55.4436ZM86.7969 55.3749L71.2405 0.931285L70.7597 1.06865L86.3161 55.5123L86.7969 55.3749ZM141.069 70.7596L86.6252 55.2032L86.4878 55.684L140.931 71.2404L141.069 70.7596ZM86.6252 86.7967L141.069 71.2404L140.931 70.7596L86.4879 86.3159L86.6252 86.7967ZM71.2406 141.069L86.7969 86.625L86.3162 86.4876L70.7599 140.931L71.2406 141.069ZM55.2034 86.625L70.7599 141.069L71.2406 140.931L55.6842 86.4876L55.2034 86.625ZM0.931316 71.2403L55.3751 86.7967L55.5125 86.3159L1.06868 70.7596L0.931316 71.2403ZM55.3751 55.2032L0.931316 70.7596L1.06868 71.2403L55.5125 55.684L55.3751 55.2032ZM70.7597 0.931285L55.2034 55.3749L55.6842 55.5123L71.2405 1.06865L70.7597 0.931285ZM80.7501 71C80.7501 76.3847 76.3849 80.75 71.0001 80.75V81.25C76.6611 81.25 81.2501 76.6609 81.2501 71H80.7501ZM71.0001 61.25C76.3849 61.25 80.7501 65.6152 80.7501 71H81.2501C81.2501 65.339 76.6611 60.75 71.0001 60.75V61.25ZM61.2501 71C61.2501 65.6152 65.6154 61.25 71.0001 61.25V60.75C65.3392 60.75 60.7501 65.339 60.7501 71H61.2501ZM71.0001 80.75C65.6154 80.75 61.2501 76.3847 61.2501 71H60.7501C60.7501 76.6609 65.3392 81.25 71.0001 81.25V80.75Z" fill="url(#paint1_linear_24_104)"/>
<path opacity="0.3" d="M126 71H141.5L87 86.5L94 80L126 71Z" fill="black"/>
<path opacity="0.3" d="M126 71H141.5L87 55.5L94 62L126 71Z" fill="#EAEAEA"/>
<path opacity="0.3" d="M55 55.5L0.5 71H16L48 62L55 55.5Z" fill="black"/>
<path opacity="0.3" d="M55.5 86.5L1 71H16.5L48.5 80L55.5 86.5Z" fill="#666666"/>
<path opacity="0.3" d="M71 16V0.499969L86.5 55L79.5 46L71 16Z" fill="black"/>
<path opacity="0.3" d="M71 126V141.5L55.5 87L62 93L71 126Z" fill="black"/>
<path opacity="0.3" d="M71 126V141.5L86.5 87L80 93L71 126Z" fill="#EAEAEA"/>
<path opacity="0.3" d="M71 16V0.5L55.5 55L62.5 46L71 16Z" fill="#666666"/>
<defs>
<linearGradient id="paint0_linear_24_104" x1="27.25" y1="27.25" x2="114.75" y2="114.75" gradientUnits="userSpaceOnUse">
<stop stop-color="white"/>
<stop offset="1" stop-color="#666666"/>
</linearGradient>
<linearGradient id="paint1_linear_24_104" x1="27.25" y1="118.031" x2="114.75" y2="27.2499" gradientUnits="userSpaceOnUse">
<stop stop-color="#BBBBBB"/>
<stop offset="1" stop-color="#DDDDDD"/>
</linearGradient>
</defs>
</svg>
