<?xml version="1.0" encoding="UTF-8"?>
<svg viewBox="0 0 200 200" xmlns="http://www.w3.org/2000/svg">
 <defs>
  <filter id="c">
   <feGaussianBlur stdDeviation=".96"/>
  </filter>
  <linearGradient id="a" x1="40" x2="160" y1="40" y2="160" gradientUnits="userSpaceOnUse">
   <stop stop-color="#fff" offset="0"/>
   <stop stop-color="#666" offset="1"/>
  </linearGradient>
  <linearGradient id="b" x1="40" x2="160" y1="164.5" y2="40" gradientUnits="userSpaceOnUse">
   <stop stop-color="#bbb" offset="0"/>
   <stop stop-color="#ddd" offset="1"/>
  </linearGradient>
 </defs>
 <path d="m88 2v36c0 30-12 36-22 36h-20l-40 38h36c30 0 36 12 36 22v20l38 40v-36c0-30 12-36 22-36h20l40-38h-36c-30 0-36-12-36-22v-20l-38-40zm14 84c6.63 0 12 5.373 12 12s-5.37 12-12 12-12-5.37-12-12 5.373-12 12-12z" fill="#333" filter="url(#c)"/>
 <path d="m86 4v36c0 30-12 36-22 36h-20l-40 38h36c30 0 36 12 36 22v20l38 40v-36c0-30 12-36 22-36h20l40-38h-36c-30 0-36-12-36-22v-20zm14 84c6.63 0 12 5.373 12 12s-5.37 12-12 12-12-5.37-12-12 5.373-12 12-12z" fill="url(#a)" stroke="url(#b)" stroke-width=".5"/>
 <path d="m44 76h20l-40 38h-20z" fill="#666" opacity=".3"/>
 <path d="m124 44v20l-38-40v-20z" opacity=".3"/>
 <path d="m114 176v20l-38-40v-20z" fill="#666" opacity=".3"/>
 <path d="m176 86h20l-40 38h-20z" fill="#666" opacity=".3"/>
</svg>
